# xmcd CD database file generated by OrangeCD 5.2
#
# Track frame offsets:
#	150
#	14817
#	32762
#	48385
#	66759
#	84774
#	99607
#	118259
#	134319
#	148479
#	162783
#
# Disc length: 2398 seconds
#
# Revision: 0
# Processed by: cddbd v1.5.1PL0 Copyright (c) Steve Scherf et al.
# Submitted via: OrangeCD 5.2
#
DISCID=9b095c0b
DTITLE=Chalee Tennison - This Woman's Heart
DYEAR=1900
DGENRE=Country
TTITLE0=Yes I Was
TTITLE1=Somebody Save Me
TTITLE2=I'm Healing
TTITLE3=This Woman's Heart
TTITLE4=Go Back
TTITLE5=Break It Even
TTITLE6=We Don't Have to Pray
TTITLE7=What I Tell Myself
TTITLE8=You Can't Say That
TTITLE9=I Ain't
TTITLE10=Under Your Skin
EXTD=
EXTT0=
EXTT1=
EXTT2=
EXTT3=
EXTT4=
EXTT5=
EXTT6=
EXTT7=
EXTT8=
EXTT9=
EXTT10=
PLAYORDER=
